<svg width="174" height="755" viewBox="0 0 174 755" version="1.1" xmlns="http://www.w3.org/2000/svg" xmlns:xlink="http://www.w3.org/1999/xlink">
<title>&#217;&#161;</title>
<desc>Created using Figma</desc>
<g id="Canvas" transform="translate(-2186 -803)">
<g id="&#217;&#161;">
<use xlink:href="#path0_fill" transform="translate(2155 -14)" fill="#E0E0E0"/>
</g>
</g>
<defs>
<path id="path0_fill" d="M 200.621 1209.12C 203.137 1233.86 204.395 1257.97 204.395 1281.45C 204.395 1323.79 199.992 1363.62 191.188 1400.94C 177.352 1458.38 159.952 1509.32 138.988 1553.76C 133.118 1565.92 127.039 1572 120.75 1572C 119.911 1572 118.863 1571.79 117.605 1571.37C 123.056 1524.41 125.781 1478.5 125.781 1433.64C 125.781 1372.85 120.75 1314.15 110.688 1257.55C 92.6589 1159.86 66.2448 1073.07 31.4453 997.18C 41.5078 968.669 51.9896 939.111 62.8906 908.504C 74.2109 877.478 86.1602 847.081 98.7383 817.312C 120.54 872.656 140.456 930.306 158.484 990.262C 176.513 1050.22 189.72 1114.79 198.105 1183.96C 199.783 1197.38 200.621 1205.77 200.621 1209.12Z"/>
</defs>
</svg>
