<svg width="699" height="775" viewBox="0 0 699 775" version="1.1" xmlns="http://www.w3.org/2000/svg" xmlns:xlink="http://www.w3.org/1999/xlink">
<title>&#217;&#164;.</title>
<desc>Created using Figma</desc>
<g id="Canvas" transform="translate(-810 -770)">
<g id="&#217;&#164;.">
<use xlink:href="#path0_fill" transform="translate(775 -47)" fill="#E0E0E0"/>
</g>
</g>
<defs>
<path id="path0_fill" d="M 430.172 1379.55C 415.917 1402.61 402.081 1426.72 388.664 1451.88C 375.667 1476.62 361.831 1500.3 347.156 1522.95C 315.711 1551.88 268.962 1567.81 206.91 1570.74C 201.04 1571.16 195.171 1571.37 189.301 1571.37C 135.634 1571.37 93.4974 1558.16 62.8906 1531.75C 50.7318 1521.69 42.556 1506.59 38.3633 1486.47C 36.6862 1480.6 35.8477 1474.73 35.8477 1468.86C 35.8477 1455.86 39.2018 1443.91 45.9102 1433.01C 60.1654 1407.86 74.8398 1382.7 89.9336 1357.54C 105.027 1332.39 118.025 1303.88 128.926 1272.01C 120.121 1249.37 107.753 1234.07 91.8203 1226.1C 75.888 1218.14 62.4714 1209.54 51.5703 1200.32C 40.6693 1190.67 35.2188 1176.42 35.2188 1157.55C 35.2188 1139.1 46.9583 1107.87 70.4375 1063.84C 92.2396 1022.34 118.234 979.78 148.422 936.176C 179.029 892.152 215.086 856.934 256.594 830.52C 264.56 825.488 274.622 821.086 286.781 817.312C 274.203 836.18 263.302 856.514 254.078 878.316C 245.273 899.699 236.049 921.292 226.406 943.094C 210.474 954.414 192.655 965.525 172.949 976.426C 153.243 986.908 139.827 1002.42 132.699 1022.96C 131.441 1026.32 130.812 1029.67 130.812 1033.03C 130.812 1041.41 135.634 1048.12 145.277 1053.15C 198.944 1086.69 225.777 1120.24 225.777 1153.78C 225.777 1164.26 223.262 1174.74 218.23 1185.22C 196.428 1229.25 166.87 1281.24 129.555 1341.19C 133.747 1364.25 146.535 1381.44 167.918 1392.76C 189.301 1404.08 212.57 1411.63 237.727 1415.4C 252.82 1417.92 267.495 1419.18 281.75 1419.18C 301.036 1419.18 319.694 1416.66 337.723 1411.63C 368.749 1403.24 396.421 1391.71 420.738 1377.04L 423.254 1377.04C 424.512 1377.04 426.818 1377.88 430.172 1379.55ZM 586.141 1566.34C 569.37 1549.57 560.984 1529.23 560.984 1505.34C 560.984 1481.44 569.37 1461.1 586.141 1444.33C 602.911 1427.14 623.246 1418.55 647.145 1418.55C 671.043 1418.55 691.378 1427.14 708.148 1444.33C 724.919 1461.1 733.305 1481.44 733.305 1505.34C 733.305 1529.23 724.919 1549.57 708.148 1566.34C 691.378 1583.11 671.043 1591.5 647.145 1591.5C 623.246 1591.5 602.911 1583.11 586.141 1566.34Z"/>
</defs>
</svg>
